<svg width="20" height="20" viewBox="0 0 24 24" fill="currentColor"
                        xmlns="http://www.w3.org/2000/svg" aria-hidden="true">
                        <path
                            d="M22.675 0H1.325C.593 0 0 .592 0 1.324v21.352C0 23.407.593 24 1.325 24H12.82v-9.294H9.692v-3.622h3.128V8.413c0-3.1 1.894-4.788 4.659-4.788 1.325 0 2.464.099 2.796.143v3.24l-1.918.001c-1.504 0-1.796.715-1.796 1.764v2.313h3.587l-.467 3.622h-3.12V24h6.116c.73 0 1.324-.593 1.324-1.324V1.324C24 .592 23.407 0 22.675 0z" />
                    </svg>