<svg width="20" height="20" viewBox="0 0 24 24" fill="currentColor"
                        xmlns="http://www.w3.org/2000/svg" aria-hidden="true">
                        <path fill-rule="evenodd" clip-rule="evenodd"
                            d="M12 2C6.477 2 2 6.484 2 12.017c0 4.42 2.865 8.166 6.839 9.49.5.092.682-.217.682-.482 0-.237-.009-.868-.013-1.703-2.782.605-3.369-1.342-3.369-1.342-.454-1.156-1.11-1.464-1.11-1.464-.908-.62.069-.608.069-.608 1.004.07 1.532 1.032 1.532 1.032.893 1.53 2.341 1.088 2.91.832.092-.647.35-1.088.636-1.34-2.22-.253-4.555-1.113-4.555-4.951 0-1.093.39-1.987 1.029-2.688-.103-.253-.446-1.27.098-2.647 0 0 .84-.27 2.75 1.026a9.564 9.564 0 012.5-.336c.85.004 1.705.115 2.5.337 1.909-1.296 2.747-1.027 2.747-1.027.546 1.377.202 2.394.1 2.647.64.701 1.028 1.595 1.028 2.688 0 3.848-2.337 4.695-4.566 4.943.36.31.678.923.678 1.86 0 1.343-.012 2.426-.012 2.756 0 .268.18.58.688.48A10.02 10.02 0 0022 12.017C22 6.484 17.523 2 12 2z" />
                    </svg>